<svg width="106" height="105" viewBox="0 0 106 105" fill="none" xmlns="http://www.w3.org/2000/svg">
<ellipse cx="52.8404" cy="52.2796" rx="52.276" ry="51.7429" fill="white"/>
<path d="M22.2597 53.7795V51.7909L28.412 45.4166C29.069 44.7241 29.6105 44.1175 30.0367 43.5967C30.4687 43.0699 30.7913 42.5698 31.0044 42.0963C31.2174 41.6228 31.324 41.1197 31.324 40.5871C31.324 39.9834 31.1819 39.4625 30.8978 39.0246C30.6137 38.5807 30.2261 38.2404 29.7348 38.0036C29.2436 37.761 28.6902 37.6396 28.0747 37.6396C27.4236 37.6396 26.8554 37.7728 26.3701 38.0391C25.8848 38.3055 25.5119 38.6813 25.2515 39.1666C24.9911 39.6519 24.8609 40.2201 24.8609 40.8712H22.2419C22.2419 39.7644 22.4964 38.7967 23.0054 37.9681C23.5144 37.1395 24.2128 36.4973 25.1006 36.0416C25.9884 35.58 26.9975 35.3491 28.1279 35.3491C29.2702 35.3491 30.2764 35.577 31.1464 36.0327C32.0223 36.4825 32.7059 37.0981 33.1972 37.8793C33.6884 38.6547 33.934 39.5306 33.934 40.5072C33.934 41.1819 33.8068 41.8418 33.5523 42.4869C33.3037 43.132 32.8687 43.8512 32.2472 44.6442C31.6258 45.4314 30.7617 46.3873 29.6549 47.5118L26.0416 51.2937V51.4269H34.227V53.7795H22.2597ZM43.7352 54.0281C42.4627 54.0281 41.3382 53.8091 40.3616 53.3712C39.391 52.9332 38.6304 52.3295 38.08 51.5601C37.5296 50.7907 37.2573 49.9147 37.2632 48.9322C37.2573 48.1628 37.4142 47.4556 37.7338 46.8104C38.0593 46.1594 38.5002 45.6178 39.0566 45.1858C39.6129 44.7478 40.2343 44.4696 40.9209 44.3513V44.2447C40.0154 44.0258 39.2903 43.5404 38.7458 42.7888C38.2013 42.0371 37.932 41.173 37.9379 40.1964C37.932 39.2672 38.1776 38.4386 38.6748 37.7106C39.1779 36.9767 39.8674 36.3997 40.7433 35.9795C41.6193 35.5593 42.6166 35.3491 43.7352 35.3491C44.8419 35.3491 45.8303 35.5622 46.7004 35.9883C47.5763 36.4086 48.2658 36.9856 48.7689 37.7195C49.272 38.4475 49.5265 39.2731 49.5324 40.1964C49.5265 41.173 49.2483 42.0371 48.6979 42.7888C48.1475 43.5404 47.4313 44.0258 46.5494 44.2447V44.3513C47.2301 44.4696 47.8427 44.7478 48.3872 45.1858C48.9376 45.6178 49.3756 46.1594 49.7011 46.8104C50.0325 47.4556 50.2012 48.1628 50.2071 48.9322C50.2012 49.9147 49.923 50.7907 49.3726 51.5601C48.8222 52.3295 48.0587 52.9332 47.0821 53.3712C46.1115 53.8091 44.9958 54.0281 43.7352 54.0281ZM43.7352 51.782C44.4868 51.782 45.1379 51.6577 45.6883 51.4092C46.2387 51.1547 46.6649 50.8025 46.9667 50.3527C47.2686 49.897 47.4224 49.3643 47.4284 48.7547C47.4224 48.1214 47.2567 47.5621 46.9312 47.0768C46.6116 46.5914 46.1766 46.2097 45.6262 45.9315C45.0757 45.6534 44.4454 45.5143 43.7352 45.5143C43.019 45.5143 42.3828 45.6534 41.8264 45.9315C41.2701 46.2097 40.8321 46.5914 40.5125 47.0768C40.1929 47.5621 40.0361 48.1214 40.042 48.7547C40.0361 49.3643 40.1811 49.897 40.477 50.3527C40.7789 50.8025 41.2079 51.1547 41.7643 51.4092C42.3206 51.6577 42.9776 51.782 43.7352 51.782ZM43.7352 43.3214C44.3389 43.3214 44.8745 43.2001 45.3421 42.9575C45.8096 42.7148 46.1766 42.3774 46.4429 41.9454C46.7152 41.5133 46.8543 41.0073 46.8602 40.4273C46.8543 39.8591 46.7181 39.3619 46.4518 38.9358C46.1914 38.5097 45.8274 38.1812 45.3598 37.9504C44.8923 37.7136 44.3507 37.5952 43.7352 37.5952C43.1078 37.5952 42.5574 37.7136 42.0839 37.9504C41.6163 38.1812 41.2523 38.5097 40.9919 38.9358C40.7315 39.3619 40.6043 39.8591 40.6102 40.4273C40.6043 41.0073 40.7345 41.5133 41.0008 41.9454C41.2671 42.3774 41.6341 42.7148 42.1017 42.9575C42.5751 43.2001 43.1196 43.3214 43.7352 43.3214ZM59.7175 54.0814C58.3148 54.0755 57.1163 53.7056 56.122 52.9717C55.1277 52.2378 54.3671 51.1695 53.8404 49.7668C53.3136 48.3641 53.0502 46.6743 53.0502 44.6975C53.0502 42.7266 53.3136 41.0428 53.8404 39.646C54.373 38.2492 55.1365 37.1839 56.1309 36.45C57.1311 35.7161 58.3266 35.3491 59.7175 35.3491C61.1084 35.3491 62.301 35.7191 63.2953 36.4589C64.2896 37.1928 65.0501 38.2581 65.5769 39.6549C66.1096 41.0458 66.3759 42.7266 66.3759 44.6975C66.3759 46.6802 66.1125 48.3729 65.5858 49.7756C65.059 51.1724 64.2985 52.2407 63.3042 52.9805C62.3098 53.7144 61.1143 54.0814 59.7175 54.0814ZM59.7175 51.711C60.9486 51.711 61.9103 51.1103 62.6028 49.9088C63.3012 48.7073 63.6504 46.9702 63.6504 44.6975C63.6504 43.1883 63.4906 41.9128 63.171 40.8712C62.8573 39.8236 62.4045 39.0305 61.8127 38.4919C61.2267 37.9474 60.5284 37.6751 59.7175 37.6751C58.4924 37.6751 57.5306 38.2788 56.8322 39.4862C56.1338 40.6936 55.7817 42.4307 55.7757 44.6975C55.7757 46.2127 55.9326 47.494 56.2463 48.5416C56.5659 49.5833 57.0186 50.3734 57.6046 50.912C58.1905 51.4447 58.8948 51.711 59.7175 51.711ZM75.8552 54.0814C74.4525 54.0755 73.254 53.7056 72.2597 52.9717C71.2654 52.2378 70.5048 51.1695 69.9781 49.7668C69.4513 48.3641 69.1879 46.6743 69.1879 44.6975C69.1879 42.7266 69.4513 41.0428 69.9781 39.646C70.5107 38.2492 71.2742 37.1839 72.2686 36.45C73.2688 35.7161 74.4643 35.3491 75.8552 35.3491C77.2461 35.3491 78.4387 35.7191 79.433 36.4589C80.4273 37.1928 81.1878 38.2581 81.7146 39.6549C82.2472 41.0458 82.5136 42.7266 82.5136 44.6975C82.5136 46.6802 82.2502 48.3729 81.7235 49.7756C81.1967 51.1724 80.4362 52.2407 79.4419 52.9805C78.4475 53.7144 77.252 54.0814 75.8552 54.0814ZM75.8552 51.711C77.0863 51.711 78.048 51.1103 78.7405 49.9088C79.4389 48.7073 79.7881 46.9702 79.7881 44.6975C79.7881 43.1883 79.6283 41.9128 79.3087 40.8712C78.995 39.8236 78.5422 39.0305 77.9504 38.4919C77.3644 37.9474 76.666 37.6751 75.8552 37.6751C74.6301 37.6751 73.6683 38.2788 72.9699 39.4862C72.2715 40.6936 71.9194 42.4307 71.9134 44.6975C71.9134 46.2127 72.0703 47.494 72.384 48.5416C72.7036 49.5833 73.1563 50.3734 73.7423 50.912C74.3282 51.4447 75.0325 51.711 75.8552 51.711Z" fill="#174CC0"/>
<path d="M43.3916 59.2798V61.2954H38.0244V71.2798H35.7197V59.2798H43.3916ZM45.8604 75.7798V59.2798H48.1416V61.2251H48.3369C48.4723 60.9751 48.6676 60.686 48.9229 60.3579C49.1781 60.0298 49.5322 59.7433 49.9854 59.4985C50.4385 59.2485 51.0374 59.1235 51.7822 59.1235C52.751 59.1235 53.6156 59.3683 54.376 59.8579C55.1364 60.3475 55.7327 61.0532 56.165 61.9751C56.6025 62.897 56.8213 64.0063 56.8213 65.3032C56.8213 66.6001 56.6051 67.7121 56.1729 68.6392C55.7406 69.561 55.1468 70.272 54.3916 70.772C53.6364 71.2668 52.7744 71.5142 51.8057 71.5142C51.0765 71.5142 50.4801 71.3918 50.0166 71.147C49.5583 70.9022 49.1989 70.6157 48.9385 70.2876C48.6781 69.9595 48.4775 69.6678 48.3369 69.4126H48.1963V75.7798H45.8604ZM48.1494 65.2798C48.1494 66.1235 48.2718 66.8631 48.5166 67.4985C48.7614 68.134 49.1156 68.6313 49.5791 68.9907C50.0426 69.3449 50.6104 69.522 51.2822 69.522C51.9801 69.522 52.5635 69.3371 53.0322 68.9673C53.501 68.5923 53.8551 68.0845 54.0947 67.4438C54.3395 66.8032 54.4619 66.0819 54.4619 65.2798C54.4619 64.4881 54.3421 63.7772 54.1025 63.147C53.8682 62.5168 53.514 62.0194 53.04 61.6548C52.5713 61.2902 51.9854 61.1079 51.2822 61.1079C50.6051 61.1079 50.0322 61.2824 49.5635 61.6313C49.0999 61.9803 48.7484 62.4673 48.5088 63.0923C48.2692 63.7173 48.1494 64.4465 48.1494 65.2798ZM67.5713 64.272V66.2954H61.0713V64.272H67.5713ZM61.7275 59.2798V71.2798H59.4385V59.2798H61.7275ZM69.2041 59.2798V71.2798H66.9229V59.2798H69.2041Z" fill="#174CC0"/>
</svg>
