<svg width="114" height="112" viewBox="0 0 114 112" fill="none" xmlns="http://www.w3.org/2000/svg">
<g filter="url(#filter0_d_1596_18)">
<ellipse cx="56.8404" cy="51.8049" rx="52.276" ry="51.7429" fill="white"/>
<path d="M32.2611 53.5535C31.1484 53.5535 30.1482 53.3404 29.2604 52.9143C28.3785 52.4823 27.6742 51.8904 27.1475 51.1387C26.6207 50.3871 26.3396 49.5289 26.3041 48.5642H28.9674C29.0325 49.3454 29.3788 49.9876 30.0061 50.4907C30.6335 50.9937 31.3852 51.2453 32.2611 51.2453C32.9595 51.2453 33.578 51.0855 34.1166 50.7659C34.6611 50.4403 35.0872 49.9935 35.395 49.4253C35.7087 48.8571 35.8655 48.2091 35.8655 47.4811C35.8655 46.7412 35.7057 46.0813 35.3861 45.5013C35.0665 44.9213 34.6256 44.4656 34.0633 44.1341C33.507 43.8027 32.8677 43.634 32.1457 43.6281C31.5953 43.6281 31.0419 43.7228 30.4855 43.9122C29.9292 44.1016 29.4794 44.3501 29.1361 44.6579L26.6237 44.285L27.6446 35.1231H37.6411V37.4757H29.9262L29.3492 42.5627H29.4557C29.8108 42.2195 30.2813 41.9324 30.8673 41.7016C31.4591 41.4708 32.0924 41.3554 32.7671 41.3554C33.8739 41.3554 34.8593 41.6187 35.7235 42.1455C36.5935 42.6722 37.2771 43.3913 37.7742 44.3028C38.2773 45.2083 38.5259 46.25 38.52 47.4278C38.5259 48.6056 38.2596 49.6561 37.721 50.5794C37.1883 51.5027 36.4485 52.2307 35.5015 52.7634C34.5605 53.2901 33.4803 53.5535 32.2611 53.5535ZM48.1103 53.5535C47.2994 53.5417 46.5004 53.3937 45.7132 53.1096C44.932 52.8255 44.2218 52.352 43.5826 51.6892C42.9434 51.0263 42.4314 50.1355 42.0467 49.0169C41.6679 47.8983 41.4785 46.5015 41.4785 44.8266C41.4785 43.2404 41.6354 41.8318 41.949 40.6007C42.2686 39.3697 42.7273 38.331 43.3251 37.4846C43.9229 36.6323 44.6449 35.9843 45.4913 35.5404C46.3377 35.0965 47.2876 34.8745 48.3411 34.8745C49.4242 34.8745 50.3859 35.0876 51.2264 35.5137C52.0668 35.9399 52.7475 36.5288 53.2683 37.2804C53.795 38.0321 54.1294 38.8873 54.2715 39.8461H51.5637C51.3803 39.0885 51.0163 38.4701 50.4718 37.9907C49.9273 37.5113 49.217 37.2716 48.3411 37.2716C47.0094 37.2716 45.9707 37.8516 45.225 39.0116C44.4851 40.1716 44.1123 41.7845 44.1064 43.85H44.2395C44.5532 43.3351 44.9379 42.8971 45.3936 42.5361C45.8553 42.1692 46.3702 41.888 46.9384 41.6927C47.5125 41.4915 48.1162 41.3909 48.7495 41.3909C49.803 41.3909 50.7559 41.6483 51.6081 42.1632C52.4663 42.6722 53.1499 43.3765 53.6589 44.2762C54.1679 45.1758 54.4224 46.2056 54.4224 47.3657C54.4224 48.5257 54.159 49.5762 53.6323 50.5173C53.1114 51.4583 52.3775 52.2041 51.4306 52.7545C50.4836 53.299 49.3768 53.5653 48.1103 53.5535ZM48.1014 51.2453C48.7998 51.2453 49.4242 51.0736 49.9746 50.7304C50.525 50.3871 50.9601 49.9254 51.2797 49.3454C51.5993 48.7654 51.7591 48.1173 51.7591 47.4012C51.7591 46.7028 51.6022 46.0665 51.2885 45.4924C50.9808 44.9183 50.5546 44.4626 50.0101 44.1252C49.4715 43.7879 48.856 43.6192 48.1635 43.6192C47.6368 43.6192 47.1485 43.7198 46.6987 43.9211C46.2548 44.1223 45.8642 44.4005 45.5268 44.7556C45.1895 45.1107 44.9231 45.5191 44.7278 45.9807C44.5384 46.4364 44.4437 46.9188 44.4437 47.4278C44.4437 48.1084 44.6006 48.7388 44.9142 49.3188C45.2338 49.8988 45.6689 50.3664 46.2193 50.7215C46.7756 51.0707 47.403 51.2453 48.1014 51.2453ZM63.9861 53.6068C62.5834 53.6009 61.3849 53.2309 60.3905 52.497C59.3962 51.7631 58.6357 50.6948 58.1089 49.2921C57.5822 47.8894 57.3188 46.1997 57.3188 44.2229C57.3188 42.252 57.5822 40.5682 58.1089 39.1714C58.6416 37.7746 59.4051 36.7093 60.3994 35.9754C61.3997 35.2415 62.5952 34.8745 63.9861 34.8745C65.3769 34.8745 66.5695 35.2444 67.5638 35.9843C68.5582 36.7182 69.3187 37.7835 69.8454 39.1803C70.3781 40.5711 70.6444 42.252 70.6444 44.2229C70.6444 46.2056 70.3811 47.8983 69.8543 49.301C69.3276 50.6978 68.567 51.7661 67.5727 52.5059C66.5784 53.2398 65.3828 53.6068 63.9861 53.6068ZM63.9861 51.2364C65.2171 51.2364 66.1789 50.6357 66.8714 49.4342C67.5698 48.2327 67.9189 46.4956 67.9189 44.2229C67.9189 42.7137 67.7591 41.4382 67.4395 40.3966C67.1259 39.349 66.6731 38.5559 66.0812 38.0173C65.4953 37.4728 64.7969 37.2005 63.9861 37.2005C62.7609 37.2005 61.7992 37.8042 61.1008 39.0116C60.4024 40.219 60.0502 41.9561 60.0443 44.2229C60.0443 45.7381 60.2011 47.0194 60.5148 48.067C60.8344 49.1087 61.2872 49.8988 61.8731 50.4374C62.4591 50.9701 63.1634 51.2364 63.9861 51.2364ZM80.1238 53.6068C78.7211 53.6009 77.5225 53.2309 76.5282 52.497C75.5339 51.7631 74.7734 50.6948 74.2466 49.2921C73.7199 47.8894 73.4565 46.1997 73.4565 44.2229C73.4565 42.252 73.7199 40.5682 74.2466 39.1714C74.7793 37.7746 75.5428 36.7093 76.5371 35.9754C77.5373 35.2415 78.7329 34.8745 80.1238 34.8745C81.5146 34.8745 82.7072 35.2444 83.7015 35.9843C84.6958 36.7182 85.4564 37.7835 85.9831 39.1803C86.5158 40.5711 86.7821 42.252 86.7821 44.2229C86.7821 46.2056 86.5188 47.8983 85.992 49.301C85.4653 50.6978 84.7047 51.7661 83.7104 52.5059C82.7161 53.2398 81.5205 53.6068 80.1238 53.6068ZM80.1238 51.2364C81.3548 51.2364 82.3166 50.6357 83.0091 49.4342C83.7074 48.2327 84.0566 46.4956 84.0566 44.2229C84.0566 42.7137 83.8968 41.4382 83.5772 40.3966C83.2636 39.349 82.8108 38.5559 82.2189 38.0173C81.633 37.4728 80.9346 37.2005 80.1238 37.2005C78.8986 37.2005 77.9368 37.8042 77.2385 39.0116C76.5401 40.219 76.1879 41.9561 76.182 44.2229C76.182 45.7381 76.3388 47.0194 76.6525 48.067C76.9721 49.1087 77.4249 49.8988 78.0108 50.4374C78.5968 50.9701 79.3011 51.2364 80.1238 51.2364Z" fill="#174CC0"/>
<path d="M47.3916 58.8052V60.8208H42.0244V70.8052H39.7197V58.8052H47.3916ZM49.8604 75.3052V58.8052H52.1416V60.7505H52.3369C52.4723 60.5005 52.6676 60.2114 52.9229 59.8833C53.1781 59.5552 53.5322 59.2687 53.9854 59.0239C54.4385 58.7739 55.0374 58.6489 55.7822 58.6489C56.751 58.6489 57.6156 58.8937 58.376 59.3833C59.1364 59.8729 59.7327 60.5786 60.165 61.5005C60.6025 62.4224 60.8213 63.5317 60.8213 64.8286C60.8213 66.1255 60.6051 67.2375 60.1729 68.1646C59.7406 69.0864 59.1468 69.7974 58.3916 70.2974C57.6364 70.7922 56.7744 71.0396 55.8057 71.0396C55.0765 71.0396 54.4801 70.9172 54.0166 70.6724C53.5583 70.4276 53.1989 70.1411 52.9385 69.813C52.6781 69.4849 52.4775 69.1932 52.3369 68.938H52.1963V75.3052H49.8604ZM52.1494 64.8052C52.1494 65.6489 52.2718 66.3885 52.5166 67.0239C52.7614 67.6593 53.1156 68.1567 53.5791 68.5161C54.0426 68.8703 54.6104 69.0474 55.2822 69.0474C55.9801 69.0474 56.5635 68.8625 57.0322 68.4927C57.501 68.1177 57.8551 67.6099 58.0947 66.9692C58.3395 66.3286 58.4619 65.6073 58.4619 64.8052C58.4619 64.0135 58.3421 63.3026 58.1025 62.6724C57.8682 62.0422 57.514 61.5448 57.04 61.1802C56.5713 60.8156 55.9854 60.6333 55.2822 60.6333C54.6051 60.6333 54.0322 60.8078 53.5635 61.1567C53.0999 61.5057 52.7484 61.9927 52.5088 62.6177C52.2692 63.2427 52.1494 63.9718 52.1494 64.8052ZM71.5713 63.7974V65.8208H65.0713V63.7974H71.5713ZM65.7275 58.8052V70.8052H63.4385V58.8052H65.7275ZM73.2041 58.8052V70.8052H70.9229V58.8052H73.2041Z" fill="#174CC0"/>
</g>
<defs>
<filter id="filter0_d_1596_18" x="0.564453" y="0.0620117" width="112.552" height="111.486" filterUnits="userSpaceOnUse" color-interpolation-filters="sRGB">
<feFlood flood-opacity="0" result="BackgroundImageFix"/>
<feColorMatrix in="SourceAlpha" type="matrix" values="0 0 0 0 0 0 0 0 0 0 0 0 0 0 0 0 0 0 127 0" result="hardAlpha"/>
<feOffset dy="4"/>
<feGaussianBlur stdDeviation="2"/>
<feComposite in2="hardAlpha" operator="out"/>
<feColorMatrix type="matrix" values="0 0 0 0 0 0 0 0 0 0 0 0 0 0 0 0 0 0 0.25 0"/>
<feBlend mode="normal" in2="BackgroundImageFix" result="effect1_dropShadow_1596_18"/>
<feBlend mode="normal" in="SourceGraphic" in2="effect1_dropShadow_1596_18" result="shape"/>
</filter>
</defs>
</svg>
