<svg width="26" height="26" viewBox="0 0 26 26" fill="none" xmlns="http://www.w3.org/2000/svg">
<ellipse cx="13.4047" cy="12.7743" rx="12.4477" ry="12.2538" fill="white"/>
<path d="M13.3635 18.0513C12.737 18.0513 12.1769 17.9386 11.6831 17.7132C11.1892 17.4846 10.7981 17.168 10.5098 16.7637C10.2214 16.3593 10.069 15.8936 10.0524 15.3667H10.992C11.0086 15.7379 11.1229 16.0627 11.335 16.3411C11.5472 16.6162 11.8289 16.8316 12.1802 16.9874C12.5315 17.1399 12.9226 17.2161 13.3535 17.2161C13.8242 17.2161 14.2385 17.1283 14.5964 16.9526C14.9577 16.7769 15.2394 16.5366 15.4416 16.2317C15.6471 15.9235 15.7498 15.5755 15.7498 15.1877C15.7498 14.7767 15.6454 14.4138 15.4366 14.0989C15.2278 13.784 14.9279 13.5388 14.5368 13.3631C14.149 13.1874 13.685 13.0996 13.1447 13.0996H12.5481V12.2644H13.1447C13.5855 12.2644 13.975 12.1848 14.313 12.0257C14.6544 11.8633 14.9229 11.6363 15.1184 11.3446C15.314 11.053 15.4118 10.7099 15.4118 10.3155C15.4118 9.94099 15.3272 9.61121 15.1582 9.32617C14.9892 9.04113 14.7505 8.81741 14.4423 8.65501C14.1374 8.4926 13.7811 8.4114 13.3734 8.4114C12.979 8.4114 12.6177 8.48763 12.2896 8.64009C11.9615 8.79255 11.6963 9.00799 11.4941 9.2864C11.2953 9.56481 11.1892 9.89459 11.176 10.2757H10.2761C10.2894 9.74544 10.4352 9.27977 10.7136 8.87873C10.9953 8.47437 11.3682 8.1595 11.8322 7.93413C12.2995 7.70543 12.8166 7.59109 13.3833 7.59109C13.9833 7.59109 14.502 7.71372 14.9395 7.95898C15.377 8.20425 15.715 8.53072 15.9537 8.93839C16.1956 9.34274 16.3166 9.78853 16.3166 10.2757C16.3166 10.8558 16.1592 11.3529 15.8443 11.7672C15.5294 12.1782 15.1052 12.4632 14.5716 12.6223V12.687C15.2212 12.8162 15.7316 13.1046 16.1028 13.552C16.4773 13.9962 16.6646 14.5414 16.6646 15.1877C16.6646 15.7312 16.5221 16.2201 16.237 16.6543C15.952 17.0852 15.5609 17.4266 15.0637 17.6784C14.5699 17.927 14.0031 18.0513 13.3635 18.0513Z" fill="#174CC0"/>
</svg>
