<svg width="26" height="26" viewBox="0 0 26 26" fill="none" xmlns="http://www.w3.org/2000/svg">
<ellipse cx="13.4047" cy="13.1559" rx="12.4477" ry="12.2538" fill="white"/>
<path d="M10.0574 18.2937V17.6126L13.3833 13.874C13.8175 13.3834 14.1672 12.9642 14.4324 12.6161C14.6975 12.2681 14.8897 11.9466 15.0091 11.6517C15.1317 11.3567 15.193 11.0501 15.193 10.7319C15.193 10.3441 15.1019 10.0061 14.9196 9.71771C14.7406 9.42604 14.4937 9.199 14.1788 9.0366C13.8639 8.87419 13.5093 8.79299 13.1149 8.79299C12.6973 8.79299 12.331 8.88248 12.0162 9.06146C11.7046 9.24043 11.4627 9.4857 11.2903 9.79725C11.118 10.1088 11.0318 10.4668 11.0318 10.8711H10.1419C10.1419 10.3077 10.2711 9.80885 10.5297 9.37467C10.7915 8.93717 11.1478 8.59413 11.5985 8.34555C12.0526 8.09697 12.5663 7.97268 13.1397 7.97268C13.7065 7.97268 14.2103 8.09531 14.6511 8.34058C15.0919 8.58253 15.4383 8.91231 15.6902 9.32992C15.9421 9.74754 16.068 10.2149 16.068 10.7319C16.068 11.1064 16.0017 11.4694 15.8691 11.8207C15.7399 12.172 15.5162 12.5631 15.198 12.994C14.8798 13.4249 14.439 13.9518 13.8755 14.575L11.35 17.3938V17.4585H16.3862V18.2937H10.0574Z" fill="#174CC0"/>
</svg>
